<svg xmlns="http://www.w3.org/2000/svg" viewBox="0 0 28 28" fill="currentColor">
  <path d="M4 18c0-2.2 1.8-4 4-4h12c2.2 0 4 1.8 4 4v2a4 4 0 0 1-4 4H8a4 4 0 0 1-4-4v-2z" opacity=".15"/>
  <path d="M5 18c0-1.7 1.3-3 3-3h12c1.7 0 3 1.3 3 3v2a3 3 0 0 1-3 3H8a3 3 0 0 1-3-3v-2z" opacity=".25"/>
  <path d="M4 19h20l-2-5H6l-2 5zm21 0h1l-2-6H4l-2 6h1" fill="currentColor" opacity=".12"/>
  <circle cx="10" cy="22" r="3.5" fill="currentColor" opacity=".85"/>
  <circle cx="10" cy="22" r="1.5" fill="currentColor" opacity=".25"/>
  <circle cx="18" cy="22" r="3.5" fill="currentColor" opacity=".85"/>
  <circle cx="18" cy="22" r="1.5" fill="currentColor" opacity=".25"/>
  <path d="M8 14l4 3h4l4-3" fill="currentColor" opacity=".08"/>
  <path d="M14 9l-2 5h4l-2-5z" fill="currentColor" opacity=".08"/>
  <ellipse cx="23" cy="18" rx="1.2" ry="1" fill="currentColor" opacity=".15"/>
  <ellipse cx="5" cy="18" rx="1" ry=".8" fill="currentColor" opacity=".15"/>
</svg>
